<?xml version="1.0" encoding="iso-8859-1"?>
<!-- Generator: Adobe Illustrator 19.0.0, SVG Export Plug-In . SVG Version: 6.00 Build 0)  -->
<svg version="1.1" id="Capa_1" xmlns="http://www.w3.org/2000/svg" xmlns:xlink="http://www.w3.org/1999/xlink" x="0px" y="0px"
	 viewBox="0 0 512 512" style="enable-background:new 0 0 512 512;" xml:space="preserve">
<rect x="106.67" y="298.67" style="fill:#FFFDF2;" width="298.67" height="198.33"/>
<rect x="256" y="298.67" style="fill:#FFF1AB;" width="149.33" height="198.33"/>
<rect x="117.33" y="411.67" style="fill:#FF70B1;" width="170.67" height="83.33"/>
<rect x="256" y="411.67" style="fill:#FF318F;" width="32" height="83.33"/>
<polygon style="fill:#FFD699;" points="309,482 121.666,482 121.666,298.667 91.666,298.667 91.666,512 309,512 "/>
<rect x="256" y="482" style="fill:#FFB340;" width="53" height="30"/>
<rect x="302" y="298.67" style="fill:#AFF3F5;" width="103.33" height="198.33"/>
<path style="fill:#37E0E7;" d="M288.002,283.667V512h132.332V283.667H288.002z M390.333,482H318V313.667h72.333V482z"/>
<path style="fill:#D17E00;" d="M310.474,192H201.525l-26.179-66.662v-10.439c0-9.977,8.117-18.094,18.094-18.094h125.12
	c9.977,0,18.094,8.117,18.094,18.094v10.44L310.474,192z"/>
<path style="fill:#AB5E00;" d="M318.56,96.804H256V192h54.474l26.179-66.662v-10.44C336.653,104.921,328.536,96.804,318.56,96.804z"
	/>
<path style="fill:#FFEE9C;" d="M336.653,122.585H175.347v-12.89c0-42.693,34.733-77.427,77.426-77.427h6.454
	c42.693,0,77.426,34.733,77.426,77.427V122.585z"/>
<path style="fill:#FFB340;" d="M259.227,32.268H256v90.317h80.653v-12.89C336.653,67.002,301.92,32.268,259.227,32.268z"/>
<path style="fill:#FF318F;" d="M256,0c-18.842,0-34.172,15.33-34.172,34.172c0,18.843,15.329,34.172,34.172,34.172
	s34.172-15.329,34.172-34.172C290.172,15.33,274.842,0,256,0z"/>
<path style="fill:#E6056B;" d="M256,68.344c18.843,0,34.172-15.329,34.172-34.172C290.172,15.33,274.842,0,256,0V68.344z"/>
<polygon style="fill:#AFF3F5;" points="398.946,187.667 113.054,187.667 73.334,274.05 256,288 438.667,274.05 "/>
<polygon style="fill:#00D8E0;" points="256,288 438.667,274.05 398.946,187.667 256,187.667 "/>
<path style="fill:#FF70B1;" d="M73,273v4.333c0,39.149,31.851,71,71,71c22.737,0,42.996-10.755,56-27.432
	c13.004,16.677,33.263,27.432,56,27.432s42.996-10.755,56-27.432c13.004,16.677,33.263,27.432,56,27.432c39.149,0,71-31.851,71-71
	V273H73z"/>
<path style="fill:#FF318F;" d="M256,273v75.333c22.737,0,42.996-10.755,56-27.432c13.004,16.677,33.263,27.432,56,27.432
	c39.149,0,71-31.851,71-71V273H256z"/>
<g>
</g>
<g>
</g>
<g>
</g>
<g>
</g>
<g>
</g>
<g>
</g>
<g>
</g>
<g>
</g>
<g>
</g>
<g>
</g>
<g>
</g>
<g>
</g>
<g>
</g>
<g>
</g>
<g>
</g>
</svg>
